# xmcd
#
# Track frame offsets:
#	150
#	13972
#	37530
#	48725
#	65717
#	81927
#	97712
#	113480
#	131750
#	148580
#
# Disc length: 2316 seconds
#
# Revision: 1
# Processed by: cddbd v1.5.2PL0 Copyright (c) Steve Scherf et al.
# Submitted via: dBpowerAMP V4.0
#
DISCID=80090a0a
DTITLE=אדם - הימים שאנחנו ביחד
DYEAR=1900
DGENRE=Pop
TTITLE0=הימים שאנחנו ביחד
TTITLE1=זה לא מסתדר לי
TTITLE2=ברוש
TTITLE3=נגד הגורל
TTITLE4=לא נוגע בך
TTITLE5=לילות אהבה (לימיקס 94)
TTITLE6=כי לא אמרתי לך
TTITLE7=מה האלה
TTITLE8=מול השקט
TTITLE9=לא ניתן לך
EXTD=
EXTT0=
EXTT1=
EXTT2=
EXTT3=
EXTT4=
EXTT5=
EXTT6=
EXTT7=
EXTT8=
EXTT9=
PLAYORDER=
